<?xml version="1.0" encoding="utf-8"?>
<!-- Generator: Adobe Illustrator 21.0.2, SVG Export Plug-In . SVG Version: 6.00 Build 0)  -->
<svg version="1.1" id="Layer_1" xmlns="http://www.w3.org/2000/svg" xmlns:xlink="http://www.w3.org/1999/xlink" x="0px" y="0px"
	 viewBox="0 0 303.0676575 59.9806519" style="enable-background:new 0 0 303.0676575 59.9806519;" xml:space="preserve">
<g>
	<defs>
		<path id="SVGID_1_" d="M16.568573,20.1379089c-2.1077576,0-3.6898499,0.296875-4.7428284,0.8853455
			c-1.0547791,0.59198-1.5803833,1.3498535-1.5803833,2.2771301c0,1.0547485,0.5692444,1.7934265,1.7078552,2.2142639
			c1.1368103,0.4208374,2.9494324,0.8207397,5.4378357,1.2014465c2.7835693,0.4644775,5.0589294,0.9587097,6.8296509,1.486084
			c1.7706909,0.5273743,3.3092041,1.4860535,4.6171265,2.8778076c1.3062134,1.3900452,1.9610596,3.3301392,1.9610596,5.8168335
			c0,2.1094666-0.6321716,3.9849854-1.8981934,5.6299438c-1.2642822,1.643219-3.1083374,2.9197388-5.533905,3.8260498
			c-2.4238281,0.9063416-5.3016663,1.3586121-8.6317749,1.3586121c-2.82547,0-5.5863037-0.3475342-8.2843018-1.0425415
			C3.7510071,45.9721375,1.6013794,45.098999,0,44.044281l3.288208-7.0828857
			c1.5175476,0.9692078,3.3511047,1.7602539,5.5025024,2.37146c2.1496582,0.6111755,4.2574158,0.9167786,6.3232117,0.9167786
			c4.175354,0,6.262146-1.0320435,6.262146-3.0996094c0-0.9691772-0.5693359-1.6641846-1.7078857-2.086792
			c-1.1385498-0.4208374-2.8883057-0.7788391-5.2492981-1.0739746c-2.7835083-0.4225769-5.081604-0.9062805-6.8942261-1.4546204
			c-1.8126221-0.5483093-3.3824768-1.5192261-4.7113953-2.9092712c-1.327179-1.3917847-1.9907532-3.3737793-1.9907532-5.9460144
			c0-2.1496582,0.6199341-4.0566101,1.8650208-5.7225342c1.2433167-1.6659546,3.0559387-2.9616394,5.4378357-3.888916
			c2.3819275-0.9272461,5.1968994-1.3917847,8.4432068-1.3917847c2.4028625,0,4.7952271,0.2637024,7.178894,0.7910767
			c2.3801575,0.5273743,4.3516846,1.2538147,5.9128418,2.1810913l-3.288208,7.0199585
			C23.3772278,20.9830933,20.1099854,20.1379089,16.568573,20.1379089L16.568573,20.1379089z M61.7863464,47.2067566V43.158905
			c-1.3061981,1.4755859-2.8673706,2.6036987-4.6799927,3.3825073c-1.8126373,0.7806091-3.7736816,1.1700134-5.8814392,1.1700134
			c-4.4686584,0-8.0101013-1.2852478-10.6242371-3.8575134c-2.6141663-2.5704956-3.9204102-6.3878479-3.9204102-11.4467773
			V13.1825256h9.8646851v17.769989c0,5.4815369,2.2980652,8.2214355,6.8942566,8.2214355
			c2.3609467,0,4.2573853-0.7683716,5.6910553-2.3085938c1.4336853-1.5384521,2.1496277-3.8260498,2.1496277-6.8610535V13.1825256
			h9.8664246v34.024231H61.7863464L61.7863464,47.2067566z M105.2333832,47.2067566V29.2446594
			c0-2.6961975-0.5902405-4.7113953-1.7707062-6.0385437c-1.1804657-1.3289185-2.8883514-1.9925232-5.1217957-1.9925232
			c-2.4884186,0-4.4704437,0.7701111-5.9460297,2.3085632c-1.4755859,1.5384827-2.2125092,3.8260803-2.2125092,6.861084v16.8235168
			H80.315918v-34.024231h9.4228668v3.9832458c1.3062134-1.4319458,2.9302063-2.5390625,4.8703461-3.3196716
			c1.938324-0.7805786,4.0687714-1.1699829,6.3878326-1.1699829c4.2154694,0,7.6206665,1.2643127,10.2138824,3.7946472
			c2.5914307,2.528595,3.888916,6.2830505,3.888916,11.2564087v19.4795837H105.2333832L105.2333832,47.2067566z
			 M137.296524,20.1379089c-2.1077423,0-3.6898499,0.296875-4.7428589,0.8853455
			c-1.054718,0.59198-1.580368,1.3498535-1.580368,2.2771301c0,1.0547485,0.5693054,1.7934265,1.70784,2.2142639
			c1.1368408,0.4208374,2.9494781,0.8207397,5.4378967,1.2014465c2.7835388,0.4644775,5.0589294,0.9587097,6.8296356,1.486084
			c1.7707214,0.5273743,3.3109283,1.4860535,4.6171265,2.8778076c1.3061829,1.3900452,1.9610443,3.3301392,1.9610443,5.8168335
			c0,2.1094666-0.6321564,3.9849854-1.8981781,5.6299438c-1.2643127,1.643219-3.1083832,2.9197388-5.5321655,3.8260498
			c-2.4255676,0.9063416-5.3033905,1.3586121-8.6335449,1.3586121c-2.8254547,0-5.5862885-0.3475342-8.284256-1.0425415
			c-2.6997375-0.6967468-4.8493805-1.5698853-6.4507141-2.6246033l3.288208-7.0828857
			c1.5175171,0.9692078,3.3511047,1.7602539,5.5024719,2.37146c2.1496735,0.6111755,4.2574158,0.9167786,6.3232269,0.9167786
			c4.1753235,0,6.2621155-1.0320435,6.2621155-3.0996094c0-0.9691772-0.5692902-1.6641846-1.7078552-2.086792
			c-1.1385803-0.4208374-2.8883057-0.7788391-5.2492676-1.0739746c-2.7818146-0.4225769-5.0816193-0.9062805-6.8925018-1.4546204
			c-1.8143463-0.5483093-3.3842773-1.5192261-4.7131805-2.9092712c-1.3271484-1.3917847-1.9907379-3.3737793-1.9907379-5.9460144
			c0-2.1496582,0.6216736-4.0566101,1.8650208-5.7225342c1.2433472-1.6659546,3.0559845-2.9616394,5.4396057-3.888916
			c2.3801727-0.9272461,5.1951599-1.3917847,8.4414368-1.3917847c2.4046173,0,4.7969971,0.2637024,7.1789093,0.7910767
			c2.381897,0.5273743,4.3516693,1.2538147,5.9128265,2.1810913l-3.288208,7.0199585
			C144.1052094,20.9830933,140.8379517,20.1379089,137.296524,20.1379089L137.296524,20.1379089z M168.6646729,35.3792725
			c0,1.4337158,0.368454,2.5408325,1.1071472,3.3214417c0.7368927,0.7805786,1.7794342,1.1699829,3.1292877,1.1699829
			c1.559433,0,2.8883362-0.4208374,3.9850006-1.2660217l2.6560669,6.9570923
			c-0.9709625,0.7177124-2.160141,1.2555847-3.5728912,1.6135559c-1.4127045,0.3562317-2.8987732,0.5361023-4.4581909,0.5361023
			c-4.0478516,0-7.178894-1.0320435-9.3914032-3.0978699c-2.2142944-2.0658569-3.3214264-5.1008606-3.3214264-9.106781V21.5296936
			h-5.2492523v-7.5892639h5.2492523V5.6561279h9.8664093v8.2843018h8.4746094v7.5892639h-8.4746094V35.3792725
			L168.6646729,35.3792725z M202.8792267,49.2935486c-1.5611725,3.9203491-3.4890594,6.6811829-5.7871246,8.2842712
			c-2.2980652,1.6013184-5.069397,2.402832-8.3156891,2.402832c-1.7707367,0-3.5222473-0.2741394-5.2492981-0.8224792
			c-1.728775-0.5483093-3.1415253-1.3061829-4.2381897-2.2753601l3.6060638-7.019989
			c0.7578583,0.6740417,1.6327515,1.201416,2.6246338,1.5803528c0.9901428,0.3789673,1.9697571,0.5693054,2.9406738,0.5693054
			c1.3481445,0,2.4447937-0.3265381,3.2882233-0.9796753c0.8434448-0.6548462,1.6013641-1.7392578,2.2771454-3.2567749
			l0.1257324-0.3178101l-14.7349548-34.2756958h10.1807098l9.5503082,23.0821533l9.6131744-23.0821533h9.485733
			L202.8792267,49.2935486L202.8792267,49.2935486z M278.9761658,32.9764404h-25.7381592
			c0.462738,2.1094971,1.5593872,3.7736816,3.2882385,4.9960632c1.7287598,1.2241516,3.8783875,1.8335571,6.4506531,1.8335571
			c1.7707214,0,3.3406067-0.2619324,4.7114563-0.7893066c1.3690186-0.5273743,2.6455688-1.360321,3.8260498-2.4989014
			l5.2492371,5.6928101c-3.2043457,3.6671753-7.8843689,5.5007629-14.0399475,5.5007629
			c-3.8365479,0-7.2312927-0.7474365-10.1824493-2.2439575c-2.9512177-1.4965515-5.2283173-3.5728455-6.8296661-6.2306519
			c-1.6030579-2.6560974-2.4028473-5.6701355-2.4028473-9.0421753c0-3.3301086,0.7892914-6.3354492,2.3714447-9.0124817
			c1.5803528-2.677002,3.7509613-4.7637939,6.5135803-6.2603149c2.7608185-1.496582,5.8499451-2.2457275,9.2656555-2.2457275
			c3.3300781,0,6.3441467,0.7177124,9.0438538,2.1496582c2.6962585,1.4336853,4.8162537,3.4890442,6.3547058,6.1660461
			c1.5384521,2.6788025,2.3085632,5.7871399,2.3085632,9.3285522
			C279.1665344,30.446106,279.1036682,31.3314514,278.9761658,32.9764404L278.9761658,32.9764404z M267.087616,22.0675049
			c-1.5175171-1.2852173-3.3737793-1.9295959-5.5653687-1.9295959c-2.235199,0-4.1106873,0.6321411-5.6282043,1.8981934
			c-1.5175018,1.2642822-2.4465027,2.993103-2.7835388,5.1846619h16.7589111
			C269.5323792,25.071106,268.6051025,23.3545227,267.087616,22.0675049L267.087616,22.0675049z M301.3353271,46.7736511
			l-0.0157166-3.9116211l-2.0798035,3.2009277h-0.8242188l-2.079834-3.1013794v3.8120728h-1.7322693v-6.8488464h1.5175171
			l2.7398987,4.1264343l2.6735229-4.1264343h1.5000305l0.0332031,6.8488464H301.3353271L301.3353271,46.7736511z
			 M291.4025879,46.7736511h-1.8475647v-5.4291077h-2.3277588v-1.4197388h6.5187988v1.4197388h-2.3434753V46.7736511
			L291.4025879,46.7736511z M224.7371979,50.9996643V0h1.0006409v50.9996643H224.7371979L224.7371979,50.9996643z
			 M236.7375488,4.9995422h-13.9998169L224.8629456,0h13.9998169L236.7375488,4.9995422L236.7375488,4.9995422z
			 M236.7375488,12.0003357h-13.9998169l2.1252136-5.0013123h13.9998169L236.7375488,12.0003357L236.7375488,12.0003357z
			 M236.7375488,18.9993591h-13.9998169l2.1252136-4.9995422h13.9998169L236.7375488,18.9993591L236.7375488,18.9993591z
			 M236.7375488,26.0001221h-13.9998169l2.1252136-5.0012817h13.9998169L236.7375488,26.0001221L236.7375488,26.0001221z
			 M236.7375488,32.9991455h-13.9998169l2.1252136-4.9995422h13.9998169L236.7375488,32.9991455L236.7375488,32.9991455z
			 M236.7375488,39.9999084h-13.9998169l2.1252136-4.9995422h13.9998169L236.7375488,39.9999084L236.7375488,39.9999084z
			 M236.7375488,46.9989624h-13.9998169l2.1252136-4.9995728h13.9998169L236.7375488,46.9989624L236.7375488,46.9989624z
			 M222.7377319,55.0003052l1.9994659-5.0012817h1.0006409l0.9988251,5.0012817H222.7377319L222.7377319,55.0003052z"/>
	</defs>
	<use xlink:href="#SVGID_1_"  style="overflow:visible;fill:#eee;"/>
	<clipPath id="SVGID_2_">
		<use xlink:href="#SVGID_1_"  style="overflow:visible;"/>
	</clipPath>
</g>
</svg>
